# xmcd
#
# Track frame offsets:
#	150
#	28627
#	46125
#	58508
#	79274
#	99757
#	120502
#	138238
#
# Disc length: 2384 seconds
#
# Revision: 4
# Processed by: cddbd v1.5.2PL0 Copyright (c) Steve Scherf et al.
# Submitted via: EZCDAudioConverter 1.0.8.1
#
DISCID=59094e08
DTITLE=Various Artist - Road Music Collection 1
DYEAR=1900
DGENRE=
TTITLE0=John Lee Hooker - Boom Boom
TTITLE1=Jerzy Janik - Blood Money
TTITLE2=Jerzy Janik - Szary Dzien
TTITLE3=Louis Jordan - Caldonia
TTITLE4=Jerzy Janik - 10:30
TTITLE5=Jerzy Janik - Better Days
TTITLE6=Jerzy Janik - Zostalem Sam
TTITLE7=Robert Johnson - Sweet Home Chicago
EXTD=
EXTT0=
EXTT1=
EXTT2=
EXTT3=
EXTT4=
EXTT5=
EXTT6=
EXTT7=
PLAYORDER=
